# xmcd
# Track frame offsets:
# 150
# 16271
# 31725
# 44723
# 57025
# 72204
# 83645
# 98202
# 111043
# 128200
# 146928
# 162474
# 176190
# 190718
# 204108
# 220875
# 237479
# 252300
# 268726
#
# Disc length: 3788 seconds
# Revision: 0
# Processed by: cddbd v1.5.1PL2 Copyright (c) Steve Scherf et al.
# Submitted via: VisiTrax 2.10.0.248 - For more info visit www.synapsa.com
#
DISCID=130eca13
DTITLE=Various Artist - PromoOnly Country April 2006
DYEAR=2006
DGENRE=
TTITLE0=Faith Hill - The Lucky One
TTITLE1=Big and Rich - Never Mind Me
TTITLE2=Corb Lund - Hair In My Eyes Like A Highland Steer
TTITLE3=Billy Currington - Why WhyWhy
TTITLE4=Gretchen Wilson - Politically Uncorrect
TTITLE5=J.R. Vautour - The New Me
TTITLE6=Hank Williams Jr. with Gretchen Wilson, Big and Rich, and Van Zant - That'
TTITLE6=s How They Do It In Dixie
TTITLE7=Jake Owen - Yee Haw
TTITLE8=Eric Church - How 'Bout You
TTITLE9=George Strait - Seashores Of Old Mexico
TTITLE10=Tim McGraw - When The Stars Go Blue
TTITLE11=Megan Mullins - Ain't What It Used To Be
TTITLE12=SheDaisy - I'm Taking The Wheel
TTITLE13=Martina McBride and Dolly Parton - I Still Miss Someone
TTITLE14=Blaine Larsen - I Don't Know What She Said
TTITLE15=Carrie Underwood - Don't Forget To Remember Me
TTITLE16=Josh Gracin - Favorite State Of Mind
TTITLE17=Trent Willmon - On Again Tonight
TTITLE18=Johnny Cash - Unclouded Day
EXTD=
EXTT0=
EXTT1=
EXTT2=
EXTT3=
EXTT4=
EXTT5=
EXTT6=
EXTT7=
EXTT8=
EXTT9=
EXTT10=
EXTT11=
EXTT12=
EXTT13=
EXTT14=
EXTT15=
EXTT16=
EXTT17=
EXTT18=
PLAYORDER=
